:FULLY-SPECIFIED
:FORCE-ALL-JOINTS-BE-3DOF
:DEGREES
306
root 9.0566 15.647 -22.8163 27.4389 72.0766 35.8412
lfemur -9.80433 9.93566 -21.2387
ltibia 49.3765 -0 0
lfoot -14.6368 -19.7104 -0.523067
ltoes 29.5643 -0 0
rfemur -50.4601 -3.75205 15.493
rtibia 57.0703 -0 0
rfoot 16.4593 -16.3537 -0.994969
rtoes 38.2435 -0 0
lowerback 7.98604 -4.4734 -6.65625
upperback 5.41699 -6.18604 -4.36266
thorax 1.3861 -3.13021 -0.393235
lowerneck -1.44826 -13.5676 -4.62423
upperneck -0.0641353 -18.1254 8.49375
head 1.4838 -9.03793 2.9482
lclavicle -1.84877e-15 1.76237e-14 6.29097e-32
lhumerus -42.3013 -46.6954 103.621
lradius 59.7513 -0 0
lwrist 15.2722 0 0
lhand 18.1924 13.7737 -0.0250947
lfingers 7.12502 -0 0
lthumb 42.8659 38.2245 0.0223445
rclavicle -1.84877e-15 1.76237e-14 6.29097e-32
rhumerus -53.25 25.9926 -95.0833
rradius 76.0301 -0 0
rwrist 8.42593 0 0
rhand -35.7425 -11.8035 0.943611
rfingers 7.12502 -0 0
rthumb -8.85869 -41.6509 0.897774
307
root 9.01093 15.6624 -22.7184 26.122 71.2584 34.3972
lfemur -9.6322 10.2816 -21.0755
ltibia 49.0948 -0 0
lfoot -14.7639 -18.5463 -0.554417
ltoes 27.644 -0 0
rfemur -50.7824 -3.94298 15.0129
rtibia 57.1792 -0 0
rfoot 16.691 -16.267 -1.02819
rtoes 38.0414 -0 0
lowerback 7.96946 -4.36409 -6.62322
upperback 5.41778 -6.04017 -4.3298
thorax 1.39073 -3.05836 -0.385548
lowerneck -1.45403 -13.5852 -4.44161
upperneck -0.301835 -18.1356 8.52934
head 1.39411 -9.04813 2.93774
lclavicle -2.47099e-15 1.76459e-14 6.52694e-32
lhumerus -42.4065 -46.9973 103.774
lradius 59.7268 -0 0
lwrist 15.2285 0 0
lhand 18.162 13.7788 -0.0256981
lfingers 7.12502 -0 0
lthumb 42.8377 38.2417 0.0223827
rclavicle -2.47099e-15 1.76459e-14 6.52694e-32
rhumerus -51.7035 26.4589 -93.963
rradius 76.3529 -0 0
rwrist 7.87274 0 0
rhand -36.1088 -12.3422 0.966549
rfingers 7.12502 -0 0
rthumb -9.21205 -42.1792 0.919677
308
root 8.96503 15.6778 -22.6231 24.8454 70.3885 32.9727
lfemur -9.47893 10.647 -20.898
ltibia 48.8049 -0 0
lfoot -14.8979 -17.3371 -0.583834
ltoes 25.6799 -0 0
rfemur -51.0773 -4.13898 14.5111
rtibia 57.276 -0 0
rfoot 16.8863 -16.1886 -1.05645
rtoes 37.8474 -0 0
lowerback 7.94618 -4.25135 -6.58262
upperback 5.41313 -5.88926 -4.2898
thorax 1.39326 -2.98386 -0.375267
lowerneck -1.46699 -13.597 -4.2505
upperneck -0.542833 -18.1373 8.55915
head 1.3031 -9.05425 2.92452
lclavicle -3.12464e-15 1.76682e-14 6.73107e-32
lhumerus -42.5303 -47.2968 103.95
lradius 59.7039 -0 0
lwrist 15.1851 0 0
lhand 18.1201 13.783 -0.0261587
lfingers 7.12502 -0 0
lthumb 42.7986 38.2606 0.0222621
rclavicle -3.12464e-15 1.76682e-14 6.73107e-32
rhumerus -50.0834 26.8737 -92.7653
rradius 76.6716 -0 0
rwrist 7.3114 0 0
rhand -36.4685 -12.9049 0.983893
rfingers 7.12502 -0 0
rthumb -9.55899 -42.7314 0.936264
309
root 8.91925 15.6929 -22.5309 23.614 69.4665 31.5722
lfemur -9.34548 11.0319 -20.7061
ltibia 48.5069 -0 0
lfoot -15.0385 -16.0836 -0.610921
ltoes 23.6744 -0 0
rfemur -51.343 -4.33954 13.9874
rtibia 57.3603 -0 0
rfoot 17.0432 -16.119 -1.07933
rtoes 37.6624 -0 0
lowerback 7.916 -4.13527 -6.53423
upperback 5.40285 -5.73342 -4.24247
thorax 1.39361 -2.90675 -0.362309
lowerneck -1.48739 -13.6026 -4.05096
upperneck -0.786719 -18.1301 8.58281
head 1.2109 -9.0561 2.90845
lclavicle -3.80963e-15 1.76906e-14 6.90062e-32
lhumerus -42.6734 -47.5929 104.151
lradius 59.6829 -0 0
lwrist 15.1422 0 0
lhand 18.0661 13.7862 -0.0264696
lfingers 7.12502 -0 0
lthumb 42.7481 38.2814 0.0219833
rclavicle -3.80963e-15 1.76906e-14 6.90062e-32
rhumerus -48.3917 27.2307 -91.4918
rradius 76.9856 -0 0
rwrist 6.74278 0 0
rhand -36.8204 -13.4915 0.995396
rfingers 7.12502 -0 0
rthumb -9.89845 -43.307 0.9473
310
root 8.87397 15.7077 -22.4424 22.432 68.4918 30.1989
lfemur -9.23281 11.4366 -20.4998
ltibia 48.2013 -0 0
lfoot -15.1858 -14.7865 -0.63527
ltoes 21.6298 -0 0
rfemur -51.5775 -4.54406 13.4418
rtibia 57.4311 -0 0
rfoot 17.1598 -16.0586 -1.09645
rtoes 37.4872 -0 0
lowerback 7.87872 -4.01594 -6.47784
upperback 5.38675 -5.57276 -4.18764
thorax 1.39168 -2.82708 -0.346592
lowerneck -1.51547 -13.6017 -3.84306
upperneck -1.03309 -18.1139 8.59994
head 1.11766 -9.05349 2.88943
lclavicle -4.52587e-15 1.77131e-14 7.03289e-32
lhumerus -42.8367 -47.8849 104.378
lradius 59.6638 -0 0
lwrist 15.0999 0 0
lhand 17.9997 13.7882 -0.0266242
lfingers 7.12502 -0 0
lthumb 42.6858 38.3041 0.0215483
rclavicle -4.52587e-15 1.77131e-14 7.03289e-32
rhumerus -46.6316 27.5234 -90.1448
rradius 77.2938 -0 0
rwrist 6.16777 0 0
rhand -37.1634 -14.1017 1.00085
rfingers 7.12502 -0 0
rthumb -10.2293 -43.906 0.952583
311
root 8.82955 15.7221 -22.3582 21.3021 67.4643 28.855
lfemur -9.14186 11.8611 -20.279
ltibia 47.8883 -0 0
lfoot -15.3398 -13.4465 -0.656463
ltoes 19.5487 -0 0
rfemur -51.779 -4.75188 12.8744
rtibia 57.4878 -0 0
rfoot 17.2341 -16.008 -1.10742
rtoes 37.3225 -0 0
lowerback 7.83412 -3.89343 -6.41325
upperback 5.36467 -5.40737 -4.1251
thorax 1.38739 -2.7449 -0.328035
lowerneck -1.55147 -13.594 -3.62685
upperneck -1.28153 -18.0882 8.61016
head 1.02351 -9.04626 2.86736
lclavicle -5.27326e-15 1.77356e-14 7.12533e-32
lhumerus -43.0211 -48.1718 104.632
lradius 59.6467 -0 0
lwrist 15.0583 0 0
lhand 17.9204 13.7891 -0.026617
lfingers 7.12502 -0 0
lthumb 42.6114 38.3286 0.0209606
rclavicle -5.27326e-15 1.77356e-14 7.12533e-32
rhumerus -44.8069 27.7454 -88.7275
rradius 77.5955 -0 0
rwrist 5.58723 0 0
rhand -37.4963 -14.7352 1.00007
rfingers 7.12502 -0 0
rthumb -10.5505 -44.528 0.951944
312
root 8.78636 15.736 -22.2788 20.2263 66.3837 27.5417
lfemur -9.07359 12.3056 -20.0437
ltibia 47.5681 -0 0
lfoot -15.5002 -12.0643 -0.674076
ltoes 17.4334 -0 0
rfemur -51.9455 -4.96229 12.285
rtibia 57.5298 -0 0
rfoot 17.2643 -15.9676 -1.11187
rtoes 37.1691 -0 0
lowerback 7.78202 -3.76783 -6.34024
upperback 5.33641 -5.23736 -4.05469
thorax 1.38064 -2.66025 -0.306555
lowerneck -1.59562 -13.5791 -3.40243
upperneck -1.53164 -18.0527 8.6131
head 0.928609 -9.03422 2.84214
lclavicle -6.05173e-15 1.7758e-14 7.1755e-32
lhumerus -43.2274 -48.4526 104.914
lradius 59.6318 -0 0
lwrist 15.0174 0 0
lhand 17.8279 13.7887 -0.0264433
lfingers 7.12502 -0 0
lthumb 42.5244 38.3551 0.0202252
rclavicle -6.05173e-15 1.7758e-14 7.1755e-32
rhumerus -42.9221 27.8901 -87.2441
rradius 77.8898 -0 0
rwrist 5.00204 0 0
rhand -37.818 -15.3918 0.992932
rfingers 7.12502 -0 0
rthumb -10.8608 -45.1728 0.945254
313
root 8.74475 15.7492 -22.2048 19.2059 65.2498 26.2594
lfemur -9.02891 12.7702 -19.7938
ltibia 47.2411 -0 0
lfoot -15.6671 -10.6407 -0.687673
ltoes 15.2863 -0 0
rfemur -52.0751 -5.17447 11.6736
rtibia 57.5562 -0 0
rfoot 17.2483 -15.938 -1.10946
rtoes 37.0277 -0 0
lowerback 7.7222 -3.6392 -6.25863
upperback 5.3018 -5.06282 -3.97622
thorax 1.37136 -2.57318 -0.282072
lowerneck -1.64813 -13.5567 -3.16986
upperneck -1.78302 -18.0072 8.60838
head 0.833081 -9.01719 2.81367
lclavicle -6.86117e-15 1.77803e-14 7.18109e-32
lhumerus -43.4564 -48.7265 105.224
lradius 59.6193 -0 0
lwrist 14.9775 0 0
lhand 17.7219 13.7871 -0.0260994
lfingers 7.12502 -0 0
lthumb 42.4246 38.3835 0.0193489
rclavicle -6.86117e-15 1.77803e-14 7.18109e-32
rhumerus -40.9828 27.9512 -85.6994
rradius 78.1758 -0 0
rwrist 4.41306 0 0
rhand -38.1274 -16.0712 0.979338
rfingers 7.12502 -0 0
rthumb -11.1592 -45.8402 0.932421
